:SAMPLES-PER-SECOND 30
:FULLY-SPECIFIED
:DEGREES
1119
root  13.6834 40.6064 10.2523 158.459 85.6594 162.5
RightUpLeg  2.43545 -12.0844 -12.2093
RightLeg  7.47525 -11.9438 2.36219
RightFoot  -0.505719 -0.329652 3.47352
RightToes  0.000481921 0.542163 -0.142578
Spine  -2.10423 -0.859404 -0.286464
Spine1  15.9537 -1.50773 2.07251
HEad  13.067 -1.36746 0.940885
LeftShoulder1  7.90554 -14.876 -36.896
LeftArm  -30.9336 -35.3398 4.97453
LeftForeArm  17.897 -66.5029 -25.3349
LeftHand  -0.25398 0.0180481 5.50724
RightShoulder  3.51747 8.13106 24.0712
RightArm  -19.4297 34.6295 8.89011
RightForeArm  -16.2411 63.949 25.829
RightHand  -2.14587 6.82325 -20.5951
LeftUpLeg  2.68546 7.48246 8.97005
LeftLeg  0.299788 10.8321 -3.25984
LeftFoot  4.687 0.821639 -6.06265
LeftToes  1.06245e-005 4.65869e-005 -8.65517e-006
1120
root  13.7619 40.6124 10.2426 158.314 85.6182 162.144
RightUpLeg  2.40841 -12.0756 -12.2487
RightLeg  7.34791 -11.9966 2.40829
RightFoot  -0.544132 -0.332247 3.52017
RightToes  0.000481921 0.542163 -0.142578
Spine  -2.17991 -0.964209 -0.477909
Spine1  15.8627 -1.6895 2.31193
HEad  13.1828 -1.22405 0.914464
LeftShoulder1  8.0152 -14.706 -37.8671
LeftArm  -30.3487 -30.8567 4.92046
LeftForeArm  33.6127 -74.353 -41.4302
LeftHand  -0.25398 0.0180481 5.50724
RightShoulder  3.59846 8.02041 25.1136
RightArm  -18.8627 30.6978 8.59303
RightForeArm  -1.12733 72.3335 41.4569
RightHand  -2.00282 5.99668 -20.6017
LeftUpLeg  2.65019 7.45496 8.91041
LeftLeg  0.155597 10.8507 -3.30838
LeftFoot  4.65897 0.819394 -6.04496
LeftToes  1.06245e-005 4.65869e-005 -8.65517e-006
1121
root  13.8438 40.6179 10.23 157.804 85.6177 161.474
RightUpLeg  2.42287 -12.0668 -12.3067
RightLeg  7.23682 -11.9883 2.43787
RightFoot  -0.591431 -0.33526 3.57248
RightToes  0.000481921 0.542163 -0.142578
Spine  -2.2929 -1.06736 -0.685263
Spine1  15.9213 -1.84511 2.47624
HEad  13.3241 -1.17215 0.951265
LeftShoulder1  8.02084 -14.4521 -38.4954
LeftArm  -29.7952 -26.5301 4.57306
LeftForeArm  65.1585 -79.0858 -73.749
LeftHand  -0.25398 0.0180481 5.50724
RightShoulder  3.67128 7.86578 26.2243
RightArm  -18.4565 27.0983 8.51878
RightForeArm  29.3011 77.5492 71.5805
RightHand  -1.85005 5.04289 -20.739
LeftUpLeg  2.6887 7.42051 8.84481
LeftLeg  0.011192 10.9172 -3.35147
LeftFoot  4.61572 0.817549 -6.03922
LeftToes  1.06245e-005 4.65869e-005 -8.65517e-006
1122
root  13.9229 40.6211 10.2185 157.196 85.6423 160.787
RightUpLeg  2.50016 -12.058 -12.3697
RightLeg  7.15749 -11.9409 2.4572
RightFoot  -0.649777 -0.33711 3.60601
RightToes  0.000481921 0.542163 -0.142578
Spine  -2.3147 -1.18183 -0.832349
Spine1  15.986 -1.95183 2.45433
HEad  13.5335 -1.15322 1.13192
LeftShoulder1  7.90284 -14.1158 -38.6713
LeftArm  -29.3064 -22.3788 3.71085
LeftForeArm  104.26 -78.5034 -114.027
LeftHand  -0.25398 0.0180481 5.50724
RightShoulder  3.76467 7.74479 27.4427
RightArm  -17.9753 23.693 8.75872
RightForeArm  68.6292 77.4199 110.488
RightHand  -1.61998 3.90007 -20.3637
LeftUpLeg  2.78748 7.38501 8.79559
LeftLeg  -0.0744268 10.9961 -3.36793
LeftFoot  4.538 0.816527 -6.05506
LeftToes  1.06245e-005 4.65869e-005 -8.65517e-006
1123
root  13.9979 40.6225 10.2111 156.993 85.6393 160.57
RightUpLeg  2.64888 -12.0686 -12.4312
RightLeg  7.09285 -11.9029 2.49627
RightFoot  -0.725725 -0.338958 3.63893
RightToes  0.000481921 0.542163 -0.142578
Spine  -2.21345 -1.3191 -0.878774
Spine1  15.8825 -2.04022 2.29722
HEad  13.8796 -1.1507 1.41735
LeftShoulder1  7.81005 -13.834 -38.8577
LeftArm  -28.9687 -18.3907 2.77626
LeftForeArm  127.415 -74.468 -137.903
LeftHand  -0.25398 0.0180481 5.50724
RightShoulder  3.90545 7.75567 28.6952
RightArm  -17.3021 20.3393 9.35561
RightForeArm  93.9843 73.5196 135.046
RightHand  -1.31791 2.64021 -19.1506
LeftUpLeg  2.89012 7.36545 8.78165
LeftLeg  -0.0550035 11.0054 -3.35128
LeftFoot  4.41626 0.81525 -6.08137
LeftToes  1.06245e-005 4.65869e-005 -8.65517e-006
1124
root  14.0699 40.6232 10.206 157.111 85.6205 160.693
RightUpLeg  2.82442 -12.1126 -12.4954
RightLeg  7.02393 -11.8564 2.5701
RightFoot  -0.809673 -0.341265 3.67852
RightToes  0.000481921 0.542163 -0.142578
Spine  -2.167 -1.43012 -0.941501
Spine1  15.7769 -2.15892 2.30727
HEad  14.2454 -1.23887 1.58446
LeftShoulder1  7.86008 -13.6772 -39.5265
LeftArm  -28.8671 -14.7754 2.17076
LeftForeArm  139.145 -69.7807 -149.595
LeftHand  -0.25398 0.0180481 5.50724
RightShoulder  4.04281 7.83476 29.6873
RightArm  -16.6553 17.145 10.4507
RightForeArm  108.344 68.9325 147.217
RightHand  -1.02885 1.45648 -17.5272
LeftUpLeg  2.97162 7.36155 8.78858
LeftLeg  0.0244404 10.9661 -3.3152
LeftFoot  4.27406 0.812817 -6.11373
LeftToes  1.06245e-005 4.65869e-005 -8.65517e-006
1125
root  14.1376 40.6235 10.1988 156.941 85.6559 160.514
RightUpLeg  2.95611 -12.1703 -12.5594
RightLeg  6.96718 -11.7479 2.64645
RightFoot  -0.87898 -0.342104 3.695
RightToes  0.000481921 0.542163 -0.142578
Spine  -2.28312 -1.45797 -1.13964
Spine1  15.8623 -2.30233 2.66165
HEad  14.472 -1.3943 1.46591
LeftShoulder1  7.98367 -13.5651 -40.4968
LeftArm  -28.8692 -11.664 1.57635
LeftForeArm  145.556 -65.4994 -155.836
LeftHand  -0.25398 0.0180481 5.50724
RightShoulder  4.11204 7.85658 30.2374
RightArm  -16.1928 14.246 12.2065
RightForeArm  118.377 64.7655 153.889
RightHand  -0.82617 0.552732 -16.1846
LeftUpLeg  3.05828 7.34934 8.78267
LeftLeg  0.0736903 10.9896 -3.27494
LeftFoot  4.14719 0.812323 -6.15281
LeftToes  1.06245e-005 4.65869e-005 -8.65517e-006
